<svg width="100%"  viewBox="0 0 341 145" fill="none" xmlns="http://www.w3.org/2000/svg">
<g clip-path="url(#clip0_61_101)">
<path d="M32.8575 125.526L32.3204 124.869C36.865 120.786 42.521 115.703 44.6381 108.986C46.725 102.364 45.1551 94.3703 40.5411 88.1232C36.6144 82.8065 30.5511 78.6199 23.0067 76.0157C21.5186 75.502 19.9736 75.0457 18.4793 74.6043C14.8676 73.5377 11.1329 72.4346 7.82546 70.4187C3.27007 67.642 -0.867613 62.188 0.157711 56.2628C0.505787 54.3668 1.35389 52.6112 2.60573 51.1952C3.85756 49.7792 5.46298 48.7596 7.23968 48.2522L7.45929 49.0868C5.83156 49.5514 4.36062 50.485 3.2134 51.7819C2.06618 53.0787 1.28862 54.6867 0.968965 56.4234C0.0161822 61.9296 3.93427 67.0455 8.24043 69.6704C11.4574 71.6311 15.1409 72.7191 18.7031 73.7711C20.2058 74.2149 21.7598 74.6739 23.265 75.1935C30.9663 77.8519 37.1661 82.1395 41.1938 87.5931C45.9738 94.0649 47.594 102.366 45.422 109.258C43.2328 116.204 37.48 121.373 32.8575 125.526Z" fill="#F1F1F1"/>
<path d="M13.2732 51.553C17.1729 50.6696 20.0025 48.3434 19.5933 46.3574C19.184 44.3714 15.6909 43.4776 11.7912 44.361C7.89143 45.2444 5.06183 47.5706 5.47107 49.5566C5.88032 51.5426 9.37344 52.4365 13.2732 51.553Z" fill="#F1F1F1"/>
<path d="M23.8039 73.9648C27.7037 73.0813 30.5333 70.7552 30.124 68.7692C29.7148 66.7831 26.2217 65.8893 22.3219 66.7727C18.4222 67.6562 15.5926 69.9823 16.0019 71.9683C16.4111 73.9544 19.9042 74.8482 23.8039 73.9648Z" fill="#F1F1F1"/>
<path d="M11.6768 80.6973C15.5766 79.8139 18.4062 77.4877 17.9969 75.5017C17.5877 73.5157 14.0946 72.6218 10.1948 73.5053C6.29509 74.3887 3.46549 76.7149 3.87473 78.7009C4.28398 80.6869 7.77709 81.5807 11.6768 80.6973Z" fill="#F1F1F1"/>
<path d="M113.201 77.1307H112.375V79.7277H113.201V77.1307Z" fill="#E5E5E5"/>
<path d="M113.201 135.06H112.375V129.526H113.201V135.06ZM113.201 123.993H112.375V118.46H113.201V123.993ZM113.201 112.927H112.375V107.394H113.201V112.927ZM113.201 101.86H112.375V96.3271H113.201V101.86ZM113.201 90.794H112.375V85.2607H113.201V90.794Z" fill="#E5E5E5"/>
<path d="M113.201 140.593H112.375V143.19H113.201V140.593Z" fill="#E5E5E5"/>
<path d="M203.604 77.1307H202.779V79.7277H203.604V77.1307Z" fill="#E5E5E5"/>
<path d="M203.604 135.06H202.779V129.526H203.604V135.06ZM203.604 123.993H202.779V118.46H203.604V123.993ZM203.604 112.927H202.779V107.394H203.604V112.927ZM203.604 101.86H202.779V96.3271H203.604V101.86ZM203.604 90.794H202.779V85.2607H203.604V90.794Z" fill="#E5E5E5"/>
<path d="M203.604 140.593H202.779V143.19H203.604V140.593Z" fill="#E5E5E5"/>
<path d="M249.206 26.3278H248.381V28.9247H249.206V26.3278Z" fill="#E5E5E5"/>
<path d="M249.206 135.275H248.381V129.958H249.206V135.275ZM249.206 124.64H248.381V119.323H249.206V124.64ZM249.206 114.005H248.381V108.688H249.206V114.005ZM249.206 103.37H248.381V98.0527H249.206V103.37ZM249.206 92.7352H248.381V87.4175H249.206V92.7352ZM249.206 82.1H248.381V76.7825H249.206V82.1ZM249.206 71.465H248.381V66.1475H249.206V71.465ZM249.206 60.8299H248.381V55.5124H249.206V60.8299ZM249.206 50.1947H248.381V44.8772H249.206V50.1947ZM249.206 39.5597H248.381V34.2422H249.206V39.5597Z" fill="#E5E5E5"/>
<path d="M249.206 140.593H248.381V143.19H249.206V140.593Z" fill="#E5E5E5"/>
<path d="M294.353 5.55225H293.528V8.14918H294.353V5.55225Z" fill="#E5E5E5"/>
<path d="M294.353 135.295H293.528V129.997H294.353V135.295ZM294.353 124.7H293.528V119.402H294.353V124.7ZM294.353 114.104H293.528V108.806H294.353V114.104ZM294.353 103.509H293.528V98.211H294.353V103.509ZM294.353 92.9133H293.528V87.6155H294.353V92.9133ZM294.353 82.3178H293.528V77.02H294.353V82.3178ZM294.353 71.7223H293.528V66.4245H294.353V71.7223ZM294.353 61.1268H293.528V55.829H294.353V61.1268ZM294.353 50.5313H293.528V45.2335H294.353V50.5313ZM294.353 39.9358H293.528V34.638H294.353V39.9358ZM294.353 29.3403H293.528V24.0425H294.353V29.3403ZM294.353 18.7448H293.528V13.447H294.353V18.7448Z" fill="#E5E5E5"/>
<path d="M294.353 140.593H293.528V143.19H294.353V140.593Z" fill="#E5E5E5"/>
<path d="M158.609 42.3422H157.783V44.9391H158.609V42.3422Z" fill="#E5E5E5"/>
<path d="M158.609 135.559H157.783V130.524H158.609V135.559ZM158.609 125.49H157.783V120.455H158.609V125.49ZM158.609 115.421H157.783V110.387H158.609V115.421ZM158.609 105.352H157.783V100.318H158.609V105.352ZM158.609 95.2833H157.783V90.249H158.609V95.2833ZM158.609 85.2145H157.783V80.1801H158.609V85.2145ZM158.609 75.1456H157.783V70.1113H158.609V75.1456ZM158.609 65.0768H157.783V60.0425H158.609V65.0768ZM158.609 55.0079H157.783V49.9736H158.609V55.0079Z" fill="#E5E5E5"/>
<path d="M158.609 140.593H157.783V143.19H158.609V140.593Z" fill="#E5E5E5"/>
<path d="M340.145 144.396H66.8203C66.5935 144.396 66.3759 144.301 66.2155 144.133C66.0551 143.965 65.965 143.737 65.965 143.499V6.14062C65.9655 5.90309 66.0558 5.67548 66.2162 5.50771C66.3765 5.33994 66.5938 5.24573 66.8203 5.24573C67.0469 5.24573 67.2642 5.33994 67.4245 5.50771C67.5849 5.67548 67.6752 5.90309 67.6757 6.14062V142.602H340.145C340.257 142.602 340.369 142.625 340.473 142.67C340.577 142.715 340.671 142.781 340.751 142.864C340.83 142.947 340.893 143.046 340.937 143.155C340.98 143.264 341.002 143.381 341.002 143.499C341.002 143.617 340.98 143.734 340.937 143.843C340.893 143.952 340.83 144.05 340.751 144.134C340.671 144.217 340.577 144.283 340.473 144.328C340.369 144.373 340.257 144.396 340.145 144.396Z" fill="#3F3D56"/>
<path d="M203.566 78.3361L158.123 42.6477L113.301 77.8484L112.275 76.4127L158.123 40.4061L203.35 75.9249L248.293 24.3566L248.474 24.28L293.809 5.12805L294.448 6.79226L249.294 25.8676L203.566 78.3361Z" fill="#3F3D56"/>
<path d="M112.788 82.5118C115.622 82.5118 117.92 80.1026 117.92 77.1306C117.92 74.1586 115.622 71.7494 112.788 71.7494C109.953 71.7494 107.656 74.1586 107.656 77.1306C107.656 80.1026 109.953 82.5118 112.788 82.5118Z" fill="#80C4EF"/>
<path d="M158.123 47.534C160.958 47.534 163.255 45.1248 163.255 42.1528C163.255 39.1809 160.958 36.7716 158.123 36.7716C155.289 36.7716 152.991 39.1809 152.991 42.1528C152.991 45.1248 155.289 47.534 158.123 47.534Z" fill="#80C4EF"/>
<path d="M203.458 82.5118C206.293 82.5118 208.59 80.1026 208.59 77.1306C208.59 74.1586 206.293 71.7494 203.458 71.7494C200.624 71.7494 198.326 74.1586 198.326 77.1306C198.326 80.1026 200.624 82.5118 203.458 82.5118Z" fill="#E5E5E5"/>
<path d="M202.22 101.556C205.054 101.556 207.352 99.1468 207.352 96.1748C207.352 93.2028 205.054 90.7936 202.22 90.7936C199.385 90.7936 197.087 93.2028 197.087 96.1748C197.087 99.1468 199.385 101.556 202.22 101.556Z" fill="#80C4EF"/>
<path d="M248.793 30.4935C251.628 30.4935 253.926 28.0842 253.926 25.1123C253.926 22.1403 251.628 19.7311 248.793 19.7311C245.959 19.7311 243.661 22.1403 243.661 25.1123C243.661 28.0842 245.959 30.4935 248.793 30.4935Z" fill="#80C4EF"/>
<path d="M294.128 10.7624C296.963 10.7624 299.261 8.35317 299.261 5.38121C299.261 2.40925 296.963 0 294.128 0C291.294 0 288.996 2.40925 288.996 5.38121C288.996 8.35317 291.294 10.7624 294.128 10.7624Z" fill="#80C4EF"/>
<path d="M65.3971 105.305C67.1499 100.497 67.4038 96.1316 65.9642 95.5546C64.5246 94.9777 61.9366 98.4078 60.1838 103.216C58.4311 108.024 58.1772 112.39 59.6168 112.967C61.0564 113.544 63.6444 110.113 65.3971 105.305Z" fill="#2F2E41"/>
<path d="M46.358 136.977C56.1767 136.977 64.1363 128.632 64.1363 118.337C64.1363 108.042 56.1767 99.6964 46.358 99.6964C36.5394 99.6964 28.5798 108.042 28.5798 118.337C28.5798 128.632 36.5394 136.977 46.358 136.977Z" fill="#2F2E41"/>
<path d="M43.6575 132.966H38.2566V143.112H43.6575V132.966Z" fill="#2F2E41"/>
<path d="M54.4595 132.966H49.0585V143.112H54.4595V132.966Z" fill="#2F2E41"/>
<path d="M42.7574 145C45.2431 145 47.2582 144.208 47.2582 143.23C47.2582 142.253 45.2431 141.461 42.7574 141.461C40.2717 141.461 38.2566 142.253 38.2566 143.23C38.2566 144.208 40.2717 145 42.7574 145Z" fill="#2F2E41"/>
<path d="M53.5594 144.764C56.0451 144.764 58.0602 143.972 58.0602 142.994C58.0602 142.017 56.0451 141.225 53.5594 141.225C51.0736 141.225 49.0585 142.017 49.0585 142.994C49.0585 143.972 51.0736 144.764 53.5594 144.764Z" fill="#2F2E41"/>
<path d="M46.8081 119.989C50.1639 119.989 52.8842 117.136 52.8842 113.618C52.8842 110.099 50.1639 107.247 46.8081 107.247C43.4524 107.247 40.732 110.099 40.732 113.618C40.732 117.136 43.4524 119.989 46.8081 119.989Z" fill="white"/>
<path d="M46.8081 115.741C47.9267 115.741 48.8335 114.791 48.8335 113.618C48.8335 112.445 47.9267 111.494 46.8081 111.494C45.6895 111.494 44.7827 112.445 44.7827 113.618C44.7827 114.791 45.6895 115.741 46.8081 115.741Z" fill="#3F3D56"/>
<path d="M29.1126 101.002C27.6771 94.2611 32.2658 87.4499 39.3618 85.7886C46.4579 84.1272 53.3741 88.2449 54.8096 94.9856C56.2451 101.726 51.5423 104.212 44.4462 105.874C37.3502 107.535 30.5481 107.743 29.1126 101.002Z" fill="#E6E6E6"/>
<path d="M34.3654 113.682C35.0258 112.222 31.9654 109.25 27.5297 107.044C23.0939 104.838 18.9627 104.234 18.3022 105.694C17.6418 107.154 20.7023 110.125 25.138 112.331C29.5737 114.537 33.705 115.142 34.3654 113.682Z" fill="#2F2E41"/>
<path d="M37.6254 125.062C37.6254 126.886 42.1057 130.489 47.0772 130.489C52.0487 130.489 56.71 125.352 56.71 123.528C56.71 121.704 52.0486 123.882 47.0772 123.882C42.1057 123.882 37.6254 123.237 37.6254 125.062Z" fill="white"/>
<path d="M180.572 134.011C190.391 134.011 198.35 125.665 198.35 115.371C198.35 105.076 190.391 96.73 180.572 96.73C170.753 96.73 162.794 105.076 162.794 115.371C162.794 125.665 170.753 134.011 180.572 134.011Z" fill="#2F2E41"/>
<path d="M177.871 130H172.47V140.146H177.871V130Z" fill="#2F2E41"/>
<path d="M188.673 130H183.272V140.146H188.673V130Z" fill="#2F2E41"/>
<path d="M180.659 143.507C181.043 142.617 179.519 141.024 177.254 139.95C174.989 138.876 172.842 138.727 172.457 139.618C172.073 140.508 173.598 142.101 175.863 143.175C178.128 144.249 180.275 144.398 180.659 143.507Z" fill="#2F2E41"/>
<path d="M190.996 142.955C191.404 142.076 189.921 140.44 187.685 139.302C185.449 138.163 183.306 137.953 182.899 138.832C182.492 139.712 183.974 141.347 186.21 142.486C188.447 143.624 190.589 143.834 190.996 142.955Z" fill="#2F2E41"/>
<path d="M163.326 98.0355C161.891 91.2948 166.48 84.4836 173.576 82.8223C180.672 81.1609 187.588 85.2786 189.023 92.0193C190.459 98.76 185.756 101.246 178.66 102.907C171.564 104.569 164.762 104.776 163.326 98.0355Z" fill="#80C4EF"/>
<path d="M199.73 107.225C203.58 103.185 205.721 98.8825 204.511 97.6152C203.301 96.3479 199.199 98.5956 195.349 102.636C191.499 106.676 189.359 110.978 190.568 112.245C191.778 113.513 195.88 111.265 199.73 107.225Z" fill="#2F2E41"/>
<path d="M165.978 123.076C167.376 117.556 167.169 112.708 165.516 112.248C163.863 111.788 161.39 115.89 159.993 121.411C158.596 126.931 158.803 131.779 160.456 132.239C162.109 132.698 164.581 128.596 165.978 123.076Z" fill="#2F2E41"/>
</g>
<defs>
<clipPath id="clip0_61_101">
<rect width="341" height="145" fill="white"/>
</clipPath>
</defs>
</svg>
