<svg width="521" height="262" viewBox="0 0 521 262" fill="none" xmlns="http://www.w3.org/2000/svg">
<g clip-path="url(#clip0_61_9)">
<path d="M259.768 219.15L257.215 221.909L256.968 216.438L256.662 224.516L254.31 221.973L256.641 225.074L255.869 245.502H258.28L257.242 222.51L259.768 219.15Z" fill="#E6E6E6"/>
<path d="M264.52 225.953L261.967 228.712L261.72 223.24L261.414 231.319L259.061 228.776L261.393 231.876L260.621 252.304H263.031L261.994 229.312L264.52 225.953Z" fill="#E6E6E6"/>
<path d="M271.648 222.242L269.094 225.001L268.847 219.53L268.541 227.608L266.188 225.065L268.52 228.166L267.748 248.594H270.158L269.121 225.602L271.648 222.242Z" fill="#E6E6E6"/>
<path d="M254.225 225.334L251.671 228.093L251.424 222.622L251.119 230.7L248.766 228.157L251.098 231.258L250.325 251.686H252.736L251.698 228.694L254.225 225.334Z" fill="#E6E6E6"/>
<path d="M200.069 0H7.62725V259.725H200.069V0Z" fill="#E6E6E6"/>
<path d="M186.895 15.6611H20.4012V126.763H186.895V15.6611Z" fill="white"/>
<path d="M186.897 122.207H20.4V241.285H186.897V122.207Z" fill="white"/>
<path d="M107.973 15.0916H99.3237V126.763H107.973V15.0916Z" fill="#3F3D56"/>
<path d="M186.895 15.0916H178.246V126.763H186.895V15.0916Z" fill="#3F3D56"/>
<path d="M186.895 117.647H20.4012V126.763H186.895V117.647Z" fill="#3F3D56"/>
<path d="M43.9306 75.4854L29.0504 86.0277V94.7495L51.5925 75.4854H43.9306Z" fill="white"/>
<path d="M68.4475 75.4854L29.0504 107.992V115.422L80.3995 75.4854H68.4475Z" fill="#E6E6E6"/>
<path d="M29.0503 15.0916H20.4012V126.763H29.0503V15.0916Z" fill="#3F3D56"/>
<path d="M162.838 24.2075L129.595 68.6484L139.866 69.7874L168.516 22.4983L162.838 24.2075Z" fill="#E6E6E6"/>
<path d="M186.895 15.0916H20.4012V24.2076H186.895V15.0916Z" fill="#3F3D56"/>
<path d="M186.895 66.3694H20.4012V75.4855H186.895V66.3694Z" fill="#3F3D56"/>
<path d="M515.133 0H322.691V259.725H515.133V0Z" fill="#E6E6E6"/>
<path d="M501.946 15.3347H335.452V126.437H501.946V15.3347Z" fill="white"/>
<path d="M501.944 121.879H335.452V240.957H501.944V121.879Z" fill="white"/>
<path d="M423.023 14.7649H414.374V126.437H423.023V14.7649Z" fill="#3F3D56"/>
<path d="M501.946 14.7649H493.297V126.437H501.946V14.7649Z" fill="#3F3D56"/>
<path d="M501.946 117.321H335.452V126.437H501.946V117.321Z" fill="#3F3D56"/>
<path d="M358.981 75.1589L344.101 85.7019V94.4231L366.643 75.1589H358.981Z" fill="#E6E6E6"/>
<path d="M383.498 75.1589L344.101 107.666V115.096L395.45 75.1589H383.498Z" fill="#E6E6E6"/>
<path d="M344.101 14.7649H335.452V126.437H344.101V14.7649Z" fill="#3F3D56"/>
<path d="M477.888 23.8811L444.646 68.3219L454.916 69.461L483.567 22.1719L477.888 23.8811Z" fill="#E6E6E6"/>
<path d="M501.946 14.7649H335.452V23.881H501.946V14.7649Z" fill="#3F3D56"/>
<path d="M501.946 66.043H335.452V75.159H501.946V66.043Z" fill="#3F3D56"/>
<path d="M415.016 148.874C415.016 148.874 415.65 151.099 412.061 153.102C408.472 155.105 407.416 162.671 411.638 164.896C415.861 167.121 417.128 170.014 415.016 172.017C412.905 174.019 409.105 179.36 414.172 180.695C419.239 182.03 419.872 184.7 418.394 185.813C416.917 186.925 421.772 183.81 421.772 183.81C421.772 183.81 422.617 189.151 427.05 187.816C431.484 186.48 443.94 161.113 437.606 157.553C431.273 153.992 415.016 148.874 415.016 148.874Z" fill="#2F2E41"/>
<path d="M409.255 199.624L388.998 214.627C388.998 214.627 373.668 197.893 373.668 188.083C373.668 178.273 365.456 159.807 361.623 167.309C357.791 174.81 366.003 192.699 366.003 192.699L381.333 230.785C381.333 230.785 390.093 232.516 395.02 228.476C399.948 224.437 413.635 216.358 413.635 216.358L409.255 199.624Z" fill="#FFB9B9"/>
<path d="M429.238 174.522C437.705 174.522 444.568 167.288 444.568 158.364C444.568 149.441 437.705 142.207 429.238 142.207C420.772 142.207 413.909 149.441 413.909 158.364C413.909 167.288 420.772 174.522 429.238 174.522Z" fill="#FFB9B9"/>
<path d="M421.3 169.617C421.3 169.617 426.775 184.62 424.585 188.083C422.395 191.545 419.657 191.545 417.467 192.699C416.372 193.276 404.875 197.893 404.875 201.355C404.928 203.579 405.491 205.758 406.517 207.702L408.16 217.512L421.847 226.745L439.914 224.437L453.602 216.358C453.602 216.358 455.792 195.007 449.769 191.545C443.747 188.083 436.629 180.004 437.177 177.119C437.724 174.233 438.272 167.309 438.272 167.309L421.3 169.617Z" fill="#FFB9B9"/>
<path d="M450.319 213.476V213.494L449.826 218.59L449.198 225.126L448.482 232.516L447.673 240.957H407.999C407.465 236.344 406.521 231.452 404.872 228.478C403.836 226.708 403.375 224.631 403.558 222.56C403.928 218.695 406.515 215.999 406.515 215.207C406.515 214.341 401.903 209.264 399.598 206.772C398.823 205.937 398.307 205.393 398.307 205.393L405.424 199.624L405.523 199.803L406.521 201.646L409.801 207.7L408.709 212.319C408.709 212.319 410.405 212.628 412.763 213.024C416.841 213.698 422.908 214.626 425.677 214.626C428.247 214.626 431.386 216.017 433.979 216.815C434.061 216.84 434.137 216.864 434.214 216.889C435.845 217.371 437.241 217.594 438.121 217.038C438.174 217.006 438.225 216.971 438.274 216.932C438.733 216.605 439.229 216.341 439.752 216.147H439.758C441.654 215.44 443.595 214.874 445.566 214.453C447.784 213.939 449.732 213.581 450.207 213.494L450.21 213.492L450.213 213.491L450.216 213.492L450.219 213.494C450.284 213.482 450.319 213.476 450.319 213.476Z" fill="#80C4EF"/>
<path d="M452.026 212.597C451.985 212.907 451.95 213.222 451.915 213.531C451.745 214.892 451.604 216.252 451.481 217.613C451.14 221.224 450.935 224.846 450.865 228.478C450.844 229.834 450.709 231.185 450.46 232.516C449.915 235.38 449.182 238.2 448.265 240.957H432.764C433.175 237.741 433.727 232.794 433.997 227.612V227.606C434.038 226.802 434.067 225.992 434.096 225.182C434.198 222.459 434.162 219.732 433.991 217.013C433.985 216.945 433.985 216.877 433.979 216.815C433.95 216.462 433.92 216.122 433.891 215.782C432.8 204.243 439.365 191.547 439.365 191.547C441.589 191.547 443.759 192.84 445.696 194.621C448.06 196.847 449.872 199.649 450.975 202.782C452.079 205.915 452.439 209.284 452.026 212.597Z" fill="#FFB9B9"/>
<path opacity="0.1" d="M450.864 228.478C450.844 229.834 450.709 231.185 450.46 232.516C449.915 235.38 449.182 238.2 448.265 240.957H432.647C433.124 235.758 433.271 230.531 433.087 225.312C433.058 224.545 433.017 223.766 432.958 222.993V222.98C432.917 222.312 432.864 221.645 432.8 220.977C432.703 220.205 432.743 219.421 432.917 218.664V218.652C433.042 218.077 433.34 217.56 433.768 217.18C433.837 217.117 433.912 217.061 433.991 217.013C434.06 216.963 434.135 216.922 434.214 216.889C434.285 216.848 434.36 216.813 434.437 216.784C435.049 216.571 435.7 216.511 436.338 216.611C436.945 216.687 437.542 216.83 438.121 217.038C440.707 218.036 443.122 219.468 445.273 221.28C446.704 222.416 448.019 223.705 449.198 225.126C450.231 226.412 450.864 227.6 450.864 228.478Z" fill="black"/>
<path d="M432.25 219.821L433.995 227.611L443.747 232.516H451.959L455.792 214.05C455.792 214.05 449.025 212.542 445.565 214.45C442.104 216.358 433.978 216.815 433.978 216.815L432.25 219.821Z" fill="#80C4EF"/>
<path d="M429.364 142.147C429.364 142.147 430.065 144.613 426.089 146.831C422.113 149.05 420.944 157.431 425.622 159.896C430.299 162.361 431.702 165.566 429.364 167.784C427.025 170.003 422.815 175.919 428.428 177.398C434.041 178.877 434.743 181.835 433.106 183.068C431.469 184.301 436.848 180.849 436.848 180.849C436.848 180.849 437.783 186.766 442.695 185.287C447.606 183.808 452.507 156.922 447.032 149.997C441.941 143.558 429.364 142.147 429.364 142.147Z" fill="#2F2E41"/>
<path d="M427.87 139.61C427.871 135.999 449.167 139.963 453.562 145.006C456.606 148.498 461.229 153.751 457.355 157.454C453.481 161.157 452.95 164.642 455.769 166.114C458.589 167.585 464.156 172.086 459.13 175.106C454.103 178.125 454.184 181.173 456.076 181.895C457.967 182.616 451.905 180.822 451.905 180.822C451.905 180.822 452.517 186.785 447.409 186.756C442.301 186.727 427.647 157.14 431.148 148.916C434.403 141.269 427.87 139.61 427.87 139.61Z" fill="#2F2E41"/>
<path d="M430.09 138.819C416.382 137.949 415.006 148.825 415.006 148.825C415.1 155.119 424.584 152.052 427.217 152.99C430.395 150.581 436.52 146.022 440.901 142.769C437.72 140.409 433.974 139.04 430.09 138.819Z" fill="#2F2E41"/>
<path d="M244.173 237.463L245.246 244.574C245.246 248.757 246.822 252.768 249.628 255.725C252.433 258.682 256.239 260.343 260.207 260.343C264.175 260.343 267.98 258.682 270.786 255.725C273.592 252.768 275.168 248.757 275.168 244.574L275.175 244.477L276.24 237.463H244.173Z" fill="#E6E6E6"/>
<path d="M521 259.626H0V260.863H521V259.626Z" fill="#3F3D56"/>
<path d="M54.1149 239.583V243.218C54.1149 243.218 51.8156 262 45.4925 262C39.1695 262 44.3429 242.612 44.3429 242.612V239.583L54.1149 239.583Z" fill="#9E616A"/>
<path d="M150.11 171.121L148.961 168.091C148.961 168.091 141.488 156.58 146.661 153.55C151.835 150.521 158.158 165.668 158.158 165.668L159.308 170.515L150.11 171.121Z" fill="#9E616A"/>
<path d="M126.255 167.423C134.635 167.423 141.428 160.263 141.428 151.43C141.428 142.598 134.635 135.438 126.255 135.438C117.875 135.438 111.082 142.598 111.082 151.43C111.082 160.263 117.875 167.423 126.255 167.423Z" fill="#9E616A"/>
<path d="M115.333 153.248L104.987 161.73L119.358 174.452L127.404 164.153L115.333 153.248Z" fill="#9E616A"/>
<path d="M124.776 241.285H71.9367L75.944 196.494L78.9186 163.231V163.225C78.9822 162.511 79.1788 161.818 79.497 161.184C79.8153 160.551 80.2489 159.99 80.7732 159.533C81.2975 159.076 81.902 158.733 82.5523 158.523C83.2026 158.313 83.8858 158.24 84.5628 158.309L106.488 160.498L122.623 170.275L123.092 174.758L139.191 186.872L128.249 208.813L121.367 222.622L124.776 241.285Z" fill="#80C4EF"/>
<path d="M79.4071 191.72L64.4617 212.319L55.2645 241.401H41.4688L51.2408 198.384L77.0352 161.21C77.6987 160.259 78.6362 159.559 79.7078 159.215C80.7794 158.871 81.9277 158.901 82.9816 159.302C83.3109 159.444 83.6544 159.548 84.0057 159.609L79.4071 191.72Z" fill="#80C4EF"/>
<path d="M126.543 208.078L162.469 223.528L168.792 216.864L159.882 168.091L148.386 170.515L152.984 199.596L139.189 186.874L134.59 185.661L126.543 208.078Z" fill="#80C4EF"/>
<path d="M111.398 156.61C110.671 150.247 111.347 143.793 113.373 137.75C116.739 128.225 127.472 131.096 133.585 133.256C139.697 135.416 147.796 144.451 145.688 149.382C143.581 154.314 133.58 148.084 130.013 144.907C126.446 141.731 120.213 151.378 120.213 151.378L111.398 156.61Z" fill="#2F2E41"/>
<path d="M122.147 150.886C122.707 149.262 122.468 147.679 121.611 147.351C120.755 147.023 119.607 148.074 119.047 149.698C118.487 151.322 118.727 152.905 119.583 153.233C120.439 153.561 121.587 152.51 122.147 150.886Z" fill="#9E616A"/>
</g>
<defs>
<clipPath id="clip0_61_9">
<rect width="521" height="262" fill="white"/>
</clipPath>
</defs>
</svg>
