<svg width="100%" height="189" viewBox="0 0 222 189" fill="none" xmlns="http://www.w3.org/2000/svg">
<g clip-path="url(#clip0_61_148)">
<path d="M126.469 167.204C124.934 164.934 122.856 163.273 120.244 162.652C117.966 162.11 115.623 162.202 113.307 162.221L84.0265 162.459C81.5187 162.48 79.1143 164.774 79.2308 167.523C79.3465 170.249 81.3384 172.609 84.0265 172.587C92.6038 172.517 101.181 172.447 109.758 172.378C111.78 172.361 113.804 172.323 115.826 172.33C116.28 172.331 116.732 172.356 117.186 172.362C117.296 172.363 117.375 172.362 117.431 172.36C117.445 172.364 117.457 172.368 117.476 172.374C117.712 172.442 117.955 172.489 118.193 172.555C118.11 172.557 118.347 172.714 118.467 172.767C118.483 172.801 118.518 172.862 118.577 172.955C118.658 173.117 118.9 173.607 118.909 173.591C119.272 174.56 119.571 175.553 119.805 176.564C120.362 178.795 120.484 179.261 120.565 181.353C120.666 183.997 122.698 186.543 125.36 186.417C127.872 186.298 130.265 184.188 130.156 181.353C129.973 176.576 129.179 171.21 126.469 167.204Z" fill="#E6E6E6"/>
<path d="M85.7477 178.631C85.1977 175.112 84.6583 171.59 84.0976 168.073C83.5287 164.505 82.3669 161.237 79.7372 158.896C79.0346 158.27 78.3061 157.686 77.5745 157.103C77.3172 156.899 77.0603 156.694 76.8061 156.484C76.7909 156.472 76.7812 156.464 76.7681 156.453C76.7401 156.428 76.7066 156.398 76.6615 156.357C75.5655 155.378 74.5065 154.355 73.4977 153.267C72.6019 152.302 71.7452 151.295 70.9276 150.247C70.7233 149.985 70.5217 149.721 70.3226 149.454C70.2884 149.408 70.104 149.157 69.9825 148.992C69.8695 148.828 69.663 148.531 69.6283 148.48C69.3958 148.132 69.1674 147.782 68.9431 147.428C67.4157 145.012 66.0931 142.458 64.9906 139.796C64.8813 139.532 64.7746 139.266 64.6704 138.999C64.6425 138.918 64.6063 138.813 64.5583 138.674C64.3362 138.029 64.1144 137.384 63.9113 136.731C63.4797 135.345 63.1087 133.938 62.7981 132.511C62.6446 131.806 62.5064 131.097 62.3835 130.385C62.3202 130.019 62.2609 129.652 62.2057 129.285C62.1966 129.224 62.1428 128.827 62.111 128.603C62.0876 128.378 62.044 127.979 62.0381 127.917C62.003 127.547 61.9719 127.176 61.9446 126.804C61.8833 125.969 61.8419 125.132 61.8203 124.294C61.7834 122.804 61.8086 121.314 61.8961 119.824C61.9458 118.987 62.0167 118.152 62.1039 117.319C62.1091 117.268 62.1132 117.227 62.1171 117.191C62.1223 117.153 62.1285 117.111 62.1358 117.058C62.2003 116.598 62.2682 116.138 62.3442 115.68C62.6318 113.939 63.0059 112.216 63.4649 110.517C63.6823 109.713 63.9183 108.916 64.1731 108.125C64.2867 107.774 64.4039 107.425 64.5247 107.077C64.5168 107.099 64.879 106.122 64.8838 106.089C66.321 102.504 68.6717 99.2351 68.6749 95.1621C68.6771 92.4044 66.4676 89.7627 63.8793 89.8902C62.5888 89.9415 61.3675 90.5198 60.4729 91.5032C59.5783 92.4867 59.0802 93.7984 59.0836 95.1621C59.0836 95.224 59.0833 95.2768 59.0832 95.3281C59.0591 95.414 59.0389 95.4856 59.0207 95.5489C58.7404 96.192 58.3971 96.8031 58.0895 97.4303C57.2471 99.1468 56.5281 100.92 55.845 102.718C54.7269 105.648 53.871 108.681 53.2886 111.779C52.0227 118.566 51.9244 125.539 52.9985 132.363C54.8579 144.331 60.9897 155.787 69.5143 163.487C70.2541 164.155 71.0119 164.801 71.7769 165.434C72.0935 165.695 72.4127 165.952 72.7335 166.208C72.8851 166.328 73.5132 166.851 73.2369 166.598C73.8311 167.133 74.0812 167.403 74.2339 167.797C74.256 167.888 74.2861 168.012 74.3269 168.18C74.4345 168.625 74.5367 169.069 74.6215 169.52C75.3635 173.461 75.8793 177.468 76.4991 181.434C76.9251 184.159 80.1024 185.933 82.3983 185.116C85.0707 184.165 86.2042 181.551 85.7477 178.631Z" fill="#E6E6E6"/>
<path d="M126.954 188.852C124.94 188.858 123.007 188.019 121.577 186.521C120.148 185.023 119.339 182.987 119.329 180.861V175.084C113.602 175.761 93.9896 175.604 88.3677 174.651V180.63C88.3526 182.755 87.5426 184.787 86.1143 186.284C84.6859 187.781 82.7551 188.621 80.7426 188.621C78.7302 188.621 76.7993 187.781 75.371 186.284C73.9426 184.787 73.1326 182.755 73.1175 180.63V168.89C65.5032 164.424 59.1556 157.893 54.7297 149.971C50.3039 142.049 47.9602 133.024 47.9405 123.826C47.9405 108.055 54.7092 93.3434 66.5112 83.4629C74.1847 77.0168 83.5079 73.1402 93.2835 72.3308C94.6104 72.221 95.9453 72.1653 97.2515 72.1653C101.853 72.1653 122.614 72.9159 127.823 74.4984L139.7 62.0534C139.875 61.868 140.098 61.7417 140.341 61.6906C140.584 61.6394 140.836 61.6659 141.064 61.7665C141.295 61.8632 141.492 62.0313 141.63 62.2485C141.768 62.4658 141.841 62.7221 141.839 62.9839V64.9626L144.152 62.5439C144.326 62.3583 144.549 62.2318 144.791 62.1806C145.034 62.1294 145.286 62.1558 145.514 62.2565C145.745 62.3532 145.942 62.5213 146.081 62.7386C146.219 62.956 146.292 63.2125 146.29 63.4744V85.5859C152.25 91.2594 156.792 98.3978 159.515 106.368C162.237 114.339 163.056 122.896 161.898 131.28C160.74 139.664 157.641 147.618 152.875 154.435C148.11 161.252 141.826 166.723 134.579 170.363V180.861C134.57 182.987 133.761 185.023 132.332 186.521C130.902 188.019 128.968 188.858 126.954 188.852ZM119.929 174.366V180.861C119.944 182.818 120.691 184.689 122.007 186.067C123.323 187.446 125.101 188.219 126.954 188.219C128.808 188.219 130.586 187.446 131.902 186.067C133.218 184.689 133.965 182.818 133.98 180.861V169.963L134.151 169.877C142.282 165.803 149.184 159.429 154.092 151.463C160.346 141.298 162.947 129.105 161.424 117.09C159.901 105.076 154.355 94.0336 145.79 85.9626L145.69 85.8682V63.4744C145.693 63.3383 145.655 63.2048 145.583 63.0919C145.511 62.979 145.408 62.892 145.288 62.8428C145.169 62.7889 145.037 62.7743 144.909 62.801C144.782 62.8278 144.665 62.8945 144.574 62.9925L141.239 66.4804V62.9839C141.242 62.8478 141.204 62.7143 141.132 62.6014C141.06 62.4885 140.957 62.4015 140.837 62.3523C140.718 62.2985 140.585 62.2841 140.458 62.311C140.33 62.3379 140.213 62.4049 140.122 62.5031L127.99 75.2145L127.818 75.1575C122.976 73.5571 101.888 72.7983 97.2515 72.7983C95.9609 72.7983 94.6417 72.8533 93.3306 72.962C83.6738 73.7614 74.4639 77.5909 66.8837 83.9588C55.226 93.7187 48.5399 108.25 48.5399 123.826C48.5599 132.942 50.891 141.886 55.2913 149.73C59.6915 157.573 66.0003 164.029 73.5624 168.427L73.717 168.518V180.63C73.7324 182.586 74.4794 184.458 75.7953 185.836C77.1112 187.213 78.8894 187.987 80.7426 187.987C82.5959 187.987 84.374 187.213 85.6899 185.836C87.0058 184.458 87.7528 182.586 87.7683 180.63V173.893L88.1234 173.963C93.1755 174.967 114.449 175.125 119.59 174.413L119.929 174.366Z" fill="#3F3D56"/>
<path d="M86.3206 37.6995L53.1288 48.2323C52.0731 48.5686 51.187 49.3337 50.6652 50.3595C50.1434 51.3853 50.0285 52.5879 50.3459 53.703C50.6632 54.8181 51.3868 55.7547 52.3577 56.3068C53.3285 56.859 54.4673 56.9816 55.5237 56.6477L84.5701 47.4284L85.1786 47.2353C85.3017 43.9244 86.1524 40.689 87.6633 37.7849C87.4737 37.6948 87.271 37.6392 87.0639 37.6203C86.8136 37.5948 86.561 37.6217 86.3206 37.6995Z" fill="#80C4EF"/>
<path d="M54.9497 58.8933C54.5091 58.8922 54.0799 58.7449 53.7229 58.4722C53.3659 58.1995 53.0991 57.8153 52.9601 57.3738L50.8846 50.7604C50.7979 50.4842 50.7636 50.1927 50.7836 49.9025C50.8036 49.6124 50.8776 49.3292 51.0012 49.0692C51.1249 48.8092 51.2959 48.5775 51.5043 48.3872C51.7128 48.197 51.9548 48.052 52.2163 47.9605L79.2311 38.5069C79.4926 38.4154 79.7686 38.3791 80.0434 38.4002C80.3182 38.4214 80.5864 38.4994 80.8326 38.6299C81.0788 38.7605 81.2983 38.941 81.4784 39.1611C81.6586 39.3812 81.796 39.6366 81.8826 39.9128L83.9582 46.5261C84.1309 47.0701 84.0963 47.6636 83.8617 48.1811C83.6271 48.6985 83.2109 49.0993 82.7014 49.2984C82.6764 49.3082 82.6512 49.3176 82.6258 49.3263L55.6117 58.7796C55.3982 58.8547 55.1747 58.8932 54.9497 58.8933Z" fill="#2F2E41"/>
<path d="M105.542 25.9546C100.09 25.9568 94.8521 28.1992 90.9378 32.2071C87.0236 36.215 84.7399 41.6739 84.5701 47.4284C84.5641 47.6531 84.5611 47.881 84.5611 48.1089C84.5611 52.4906 85.7916 56.7739 88.097 60.4172C90.4024 64.0604 93.6792 66.9 97.5129 68.5768C101.347 70.2536 105.565 70.6923 109.635 69.8375C113.705 68.9827 117.443 66.8727 120.378 63.7744C123.312 60.676 125.31 56.7285 126.12 52.431C126.929 48.1335 126.514 43.679 124.926 39.6308C123.338 35.5826 120.649 32.1226 117.198 29.6883C113.748 27.2539 109.692 25.9546 105.542 25.9546ZM105.542 69.6302C100.138 69.6243 94.9574 67.3549 91.1364 63.3202C87.3153 59.2855 85.1662 53.8149 85.1606 48.1089C85.1606 47.8146 85.1666 47.5234 85.1786 47.2354C85.3409 43.0197 86.6732 38.9473 89.0098 35.5247C91.3464 32.1022 94.5842 29.4803 98.3206 27.9853C102.057 26.4902 106.127 26.1878 110.025 27.1158C113.923 28.0438 117.477 30.1611 120.244 33.2046C123.011 36.248 124.87 40.0833 125.59 44.2335C126.31 48.3837 125.858 52.6657 124.292 56.5471C122.725 60.4285 120.112 63.738 116.779 66.0641C113.445 68.3902 109.538 69.6303 105.542 69.6302Z" fill="#3F3D56"/>
<path d="M123.226 48.1089C123.226 53.0612 121.363 57.8108 118.046 61.3126C114.73 64.8145 110.232 66.7818 105.542 66.7818C100.852 66.7818 96.354 64.8145 93.0376 61.3126C89.7212 57.8108 87.8581 53.0612 87.8581 48.1089C87.8581 47.517 87.8851 46.9347 87.936 46.3587C88.3621 41.5791 90.5152 37.1565 93.9482 34.0091C97.3812 30.8617 101.83 29.2314 106.372 29.4566C110.913 29.6818 115.198 31.7453 118.336 35.2187C121.475 38.692 123.226 43.3082 123.226 48.1089Z" fill="#E6E6E6"/>
<path d="M110.808 49.3495C110.379 48.7544 109.816 48.283 109.169 47.9791C108.371 47.624 107.547 47.3382 106.705 47.1245V42.0417C107.999 42.2477 109.213 42.8321 110.209 43.7286L111.186 41.529C110.624 41.0003 109.979 40.5794 109.28 40.2852C108.505 39.9538 107.691 39.7335 106.861 39.6301V37.0538H104.598V39.6554C103.724 39.759 102.881 40.0579 102.125 40.5321C101.442 40.9589 100.867 41.5539 100.45 42.2664C100.051 42.9617 99.8444 43.7609 99.8532 44.5736C99.8143 45.4544 100.056 46.3235 100.54 47.0423C100.985 47.6645 101.573 48.1569 102.248 48.4728C103.059 48.8384 103.897 49.1316 104.754 49.3495V54.2203C103.227 54.0986 101.772 53.4856 100.585 52.4637L99.6075 54.6665C100.271 55.2459 101.026 55.6979 101.837 56.0021C102.727 56.3381 103.656 56.5426 104.598 56.6098V59.1638H106.861V56.5623C108.118 56.4173 109.296 55.8466 110.221 54.9355C110.628 54.5233 110.949 54.0264 111.165 53.4761C111.381 52.9259 111.486 52.3344 111.474 51.739C111.511 50.8863 111.277 50.0449 110.808 49.3495ZM104.754 46.5865C104.203 46.41 103.69 46.1195 103.246 45.732C103.07 45.5667 102.931 45.3624 102.839 45.1337C102.747 44.9049 102.704 44.6575 102.713 44.4091C102.696 43.8454 102.892 43.2979 103.258 42.8868C103.663 42.4554 104.186 42.1688 104.754 42.067V46.5865ZM108.126 53.3214C107.743 53.7355 107.245 54.0094 106.705 54.1032V49.9128C107.222 50.0592 107.705 50.3143 108.126 50.6629C108.285 50.8068 108.412 50.9868 108.497 51.1895C108.581 51.3923 108.621 51.6125 108.614 51.8339C108.635 52.3771 108.461 52.9085 108.126 53.3214Z" fill="#80C4EF"/>
<path d="M55.913 85.6965C55.4497 85.6957 54.9995 85.5335 54.6324 85.235C54.2652 84.9366 54.0016 84.5186 53.8823 84.0458L52.7523 79.5295C52.6109 78.9618 52.6884 78.3581 52.968 77.8507C53.2475 77.3433 53.7062 76.9738 54.2435 76.8231L89.8932 66.8759C90.4311 66.7277 91.0028 66.8105 91.4831 67.1061C91.9634 67.4018 92.3133 67.8864 92.4561 68.4537L93.4134 72.28L93.2341 72.2947C84.091 73.0454 75.3429 76.5457 68.0248 82.3816L67.9728 82.4082L56.4453 85.6236C56.2716 85.672 56.0927 85.6965 55.913 85.6965Z" fill="#2F2E41"/>
<path d="M50.0087 108.005C45.8268 107.352 41.8273 105.756 38.2828 103.323C36.5267 102.119 34.9011 100.715 33.435 99.1365C31.988 97.578 30.6036 95.8067 29.8869 93.7311C29.1973 91.8109 29.2328 89.6842 29.9862 87.7908C30.7292 85.909 32.1486 84.4152 33.9332 83.6367C35.7284 82.8808 37.8974 82.7999 39.6446 83.6278C40.4772 84.0131 41.1976 84.6255 41.732 85.402C41.9804 85.76 42.1643 86.1632 42.2746 86.5914C42.3769 86.9795 42.3862 87.3883 42.3017 87.7811C42.1992 88.1733 42.0186 88.5378 41.7718 88.8502C41.525 89.1626 41.2178 89.4156 40.8708 89.5924C40.1072 90.0061 39.2797 90.2726 38.4274 90.3793C37.5702 90.5027 36.3387 90.615 35.6496 89.8884C35.5077 89.7447 35.3961 89.5709 35.3221 89.3786C35.2703 89.2313 35.2526 89.0731 35.2704 88.9171C35.2604 88.9859 35.312 88.7676 35.309 88.7764C35.2981 88.8086 35.2509 88.8873 35.318 88.7664C35.339 88.7266 35.3623 88.6882 35.3879 88.6515C35.3651 88.6826 35.3151 88.7346 35.4044 88.6455C35.4783 88.5602 35.5732 88.4983 35.6785 88.4669C35.72 88.4541 35.762 88.4439 35.8036 88.4319C35.9094 88.4014 35.6983 88.4336 35.8064 88.4299C35.8482 88.4285 35.8904 88.4296 35.932 88.4277C36.0381 88.4226 35.8273 88.3971 35.929 88.4241C35.9685 88.4346 36.0076 88.4448 36.0465 88.4577C36.1311 88.4859 35.9866 88.3923 36.0439 88.4623C36.1111 88.5444 35.9734 88.3825 36.0498 88.4619C36.0877 88.5013 36.1235 88.543 36.157 88.5867C36.2893 88.7247 36.4678 88.8021 36.6538 88.8021C36.8397 88.8021 37.0182 88.7247 37.1505 88.5867C37.2784 88.4455 37.3497 88.2576 37.3497 88.0622C37.3497 87.8668 37.2784 87.6789 37.1505 87.5376C36.4578 86.6307 35.0893 86.8548 34.3885 87.6212C33.4947 88.5987 33.8486 90.1478 34.718 91.0007C35.7023 91.9663 37.0962 92.0334 38.3622 91.8714C39.4322 91.7632 40.4748 91.4521 41.4402 90.953C42.3993 90.4553 43.1495 89.5996 43.5454 88.5514C43.7242 87.992 43.7884 87.3989 43.7338 86.8114C43.6792 86.2238 43.5071 85.6552 43.2288 85.1431C42.111 82.9242 39.7965 81.7865 37.5087 81.5895C36.3309 81.4921 35.1464 81.6423 34.0239 82.0314C32.9013 82.4205 31.8631 83.0408 30.9691 83.8564C29.2459 85.4945 28.1849 87.7691 28.0053 90.21C27.8056 92.7406 28.7354 95.1983 30.0912 97.2406C31.5104 99.3157 33.2041 101.165 35.1204 102.733C38.8668 105.891 43.2613 108.079 47.9523 109.123C48.5102 109.245 49.0712 109.349 49.6352 109.435C49.8146 109.481 50.0039 109.453 50.1645 109.357C50.325 109.261 50.4448 109.104 50.4994 108.917C50.5476 108.728 50.5231 108.526 50.4313 108.355C50.3394 108.184 50.1876 108.058 50.0087 108.005Z" fill="#3F3D56"/>
<path d="M116.963 75.762C110.836 75.6707 104.728 75.8349 98.64 76.2546C96.5589 76.3981 94.7583 77.1748 94.7583 78.4802C94.7583 79.5716 96.5446 80.8502 98.64 80.7057C104.725 80.2861 110.833 80.1219 116.963 80.2132C121.961 80.2876 121.958 75.8365 116.963 75.762Z" fill="#CCCCCC"/>
<path d="M107.907 79.9927C107.245 79.9927 91.6904 79.9665 91.6904 77.6978C91.6904 75.4292 107.245 75.4031 107.907 75.4031C108.57 75.4031 124.124 75.4292 124.124 77.6978C124.124 79.9665 108.57 79.9927 107.907 79.9927ZM92.2987 77.6978C92.7243 78.3856 98.442 79.3597 107.907 79.3597C117.373 79.3597 123.09 78.3856 123.516 77.6978C123.09 77.0101 117.373 76.0361 107.907 76.0361C98.442 76.0361 92.7243 77.0101 92.2987 77.6978Z" fill="#3F3D56"/>
<path d="M157.258 139.635C160.702 139.534 164.987 139.408 168.289 136.862C169.272 136.072 170.08 135.065 170.655 133.912C171.231 132.758 171.561 131.485 171.622 130.183C171.689 128.171 171.001 126.416 169.684 125.241C167.96 123.702 165.442 123.341 162.728 124.183L165.54 102.489L163.476 102.19L160.171 127.695L161.894 126.86C163.892 125.892 166.635 125.4 168.339 126.921C168.758 127.318 169.084 127.812 169.292 128.365C169.5 128.917 169.585 129.513 169.54 130.105C169.49 131.075 169.242 132.021 168.814 132.881C168.386 133.74 167.788 134.492 167.06 135.085C164.491 137.067 161.075 137.322 157.2 137.437L157.258 139.635Z" fill="#3F3D56"/>
<path d="M151.552 104.36H140.333V106.559H151.552V104.36Z" fill="#3F3D56"/>
<path d="M60.9899 95.8135C60.4905 95.8118 60.008 95.6224 59.6288 95.2792C59.2496 94.936 58.9986 94.4615 58.9206 93.9406L58.2358 89.3257C58.1502 88.7453 58.2862 88.1528 58.614 87.6781C58.9417 87.2035 59.4343 86.8855 59.9838 86.794L96.41 80.7672C96.9597 80.6769 97.5208 80.8206 97.9703 81.1666C98.4197 81.5126 98.7208 82.0328 98.8075 82.613L99.4923 87.228C99.5779 87.8084 99.4419 88.401 99.1142 88.8756C98.7865 89.3503 98.2938 89.6683 97.7444 89.7598L61.3182 95.7864C61.2096 95.8044 61.0998 95.8134 60.9899 95.8135Z" fill="#2F2E41"/>
<path d="M45.9149 41.7307C54.3572 41.7307 61.201 34.5041 61.201 25.5897C61.201 16.6753 54.3572 9.44873 45.9149 9.44873C37.4727 9.44873 30.6289 16.6753 30.6289 25.5897C30.6289 34.5041 37.4727 41.7307 45.9149 41.7307Z" fill="#80C4EF"/>
<path d="M54.5696 29.7661C55.0581 29.5857 55.5044 29.2969 55.8785 28.9192C56.1259 28.6498 56.3146 28.3266 56.4314 27.9722C56.5481 27.6178 56.5901 27.2407 56.5543 26.8673C56.5335 26.6012 56.4547 26.3438 56.3241 26.1152C56.1935 25.8866 56.0146 25.693 55.8013 25.5494C55.2481 25.1902 54.5171 25.2038 53.7791 25.565L53.6939 19.2644L53.0946 19.2734L53.1947 26.6805L53.6509 26.3645C54.18 25.9987 54.9403 25.7334 55.4873 26.0886C55.6225 26.1827 55.7354 26.3084 55.8172 26.4561C55.899 26.6037 55.9474 26.7692 55.9587 26.9399C55.9839 27.218 55.9521 27.4986 55.8654 27.7626C55.7787 28.0266 55.6392 28.2677 55.4563 28.4697C54.8065 29.1505 53.8447 29.3786 52.747 29.5872L52.8532 30.2101C53.4367 30.1166 54.0112 29.968 54.5696 29.7661Z" fill="#2F2E41"/>
<path d="M59.8664 18.8222L56.6743 19.3326L56.764 19.9584L59.9562 19.4479L59.8664 18.8222Z" fill="#2F2E41"/>
<path d="M49.7906 20.433L46.5984 20.9435L46.6882 21.5692L49.8803 21.0588L49.7906 20.433Z" fill="#2F2E41"/>
<path d="M56.0166 95.5312C55.4669 95.53 54.9305 95.352 54.4789 95.021C54.0273 94.69 53.6819 94.2216 53.4886 93.6782L42.9493 63.8746C41.6611 60.2194 41.7986 56.1739 43.3318 52.6256C44.8649 49.0774 47.6683 46.3162 51.1271 44.9478L59.6967 41.5689C60.0281 41.4374 60.3809 41.3763 60.7347 41.3893C61.0885 41.4022 61.4363 41.489 61.7583 41.6445C62.0794 41.796 62.3688 42.0136 62.6094 42.2845C62.85 42.5554 63.037 42.8743 63.1596 43.2224L82.6827 82.1456C82.8095 82.4966 82.8693 82.8706 82.8586 83.246C82.848 83.6215 82.7671 83.991 82.6206 84.3334C82.4742 84.6757 82.2651 84.9841 82.0054 85.2408C81.7456 85.4975 81.4404 85.6973 81.1072 85.829L56.9593 95.3503C56.6579 95.4697 56.3386 95.5309 56.0166 95.5312Z" fill="#2F2E41"/>
<path d="M57.0967 42.594L76.4677 69.9469L63.3602 42.8811C63.252 42.5653 63.0858 42.2751 62.8714 42.0271C62.6569 41.7791 62.3982 41.5782 62.1102 41.4358C61.8221 41.2933 61.5103 41.2122 61.1926 41.1971C60.8748 41.1819 60.5574 41.233 60.2583 41.3474L57.0967 42.594Z" fill="#E6E6E6"/>
<path d="M87.7683 63.3669L53.1813 61.0144C52.6361 60.9773 52.1032 60.8272 51.613 60.5726C51.1227 60.3181 50.6848 59.9641 50.3241 59.5308C49.9635 59.0975 49.6871 58.5935 49.5109 58.0474C49.3348 57.5014 49.2622 56.9241 49.2973 56.3484C49.3324 55.7727 49.4745 55.21 49.7156 54.6923C49.9567 54.1747 50.2919 53.7122 50.7023 53.3314C51.1126 52.9506 51.5899 52.6588 52.1071 52.4728C52.6242 52.2867 53.1709 52.21 53.7161 52.2471L88.3031 54.5995C88.5584 54.6168 88.808 54.6871 89.0376 54.8063C89.2672 54.9255 89.4723 55.0913 89.6412 55.2942C89.8101 55.4971 89.9395 55.7331 90.022 55.9888C90.1045 56.2446 90.1386 56.5149 90.1221 56.7845L89.8378 61.4462C89.8045 61.9906 89.5679 62.4989 89.1798 62.8591C88.7917 63.2193 88.2839 63.4019 87.7683 63.3669Z" fill="#80C4EF"/>
<path d="M78.5262 64.875C78.4805 64.875 78.4347 64.8734 78.3888 64.8703L49.9878 62.9386C49.7129 62.92 49.4441 62.8443 49.1968 62.7159C48.9496 62.5876 48.7287 62.409 48.5468 62.1905C48.3649 61.972 48.2255 61.7178 48.1367 61.4424C48.0478 61.167 48.0112 60.8759 48.0289 60.5855L48.5146 52.6232C48.5323 52.3329 48.604 52.0491 48.7256 51.788C48.8472 51.5269 49.0163 51.2937 49.2232 51.1016C49.4302 50.9095 49.671 50.7624 49.9318 50.6686C50.1926 50.5748 50.4684 50.5362 50.7433 50.5549L79.1442 52.4864C79.6992 52.5248 80.2172 52.7941 80.5844 53.2353C80.9516 53.6764 81.1382 54.2534 81.103 54.8396L80.6174 62.802C80.5907 63.2287 80.4479 63.6381 80.2062 63.9812C79.9645 64.3242 79.6342 64.5863 79.2548 64.736C79.0218 64.8281 78.775 64.8752 78.5262 64.875Z" fill="#2F2E41"/>
<path d="M45.7397 14.8562C47.7506 13.0299 50.5121 14.6636 52.8182 14.3777C55.0246 14.104 56.7667 12.0143 57.2118 9.79413C57.731 7.20398 56.4578 4.60902 54.5812 2.9941C52.5259 1.22537 49.7999 0.717614 47.2168 1.04484C44.2562 1.41988 41.5486 2.87711 39.1191 4.63971C36.774 6.28834 34.6175 8.21796 32.6925 10.3901C30.9687 12.4003 29.5082 14.7965 29.0419 17.5015C28.6181 19.9599 28.9417 22.684 30.318 24.7666C31.0478 25.834 32.0258 26.6848 33.1576 27.2369C34.3378 27.8488 35.5967 28.2863 36.74 28.9781C38.4688 30.0242 40.1489 32.1933 39.6074 34.4505C39.4913 34.9436 39.2622 35.399 38.9402 35.7766C38.5534 36.2301 37.8556 35.6309 38.2435 35.1762C38.9247 34.3777 38.8979 33.3128 38.5348 32.3594C38.1031 31.2851 37.3387 30.3975 36.3668 29.8419C35.17 29.1194 33.8486 28.6734 32.622 28.0153C31.4479 27.4141 30.4287 26.5223 29.6513 25.4157C28.1831 23.2614 27.744 20.4576 28.077 17.8639C28.4373 15.0572 29.803 12.5066 31.515 10.3693C33.3782 8.04327 35.6668 6.07436 38.0048 4.30555C40.5136 2.40761 43.2852 0.803027 46.3522 0.222676C49.0109 -0.280398 51.8926 0.0293263 54.2174 1.55919C56.3875 2.98722 58.0516 5.44372 58.2171 8.18861C58.2766 9.43753 58.0197 10.6806 57.4731 11.7899C56.9265 12.8992 56.1098 13.8347 55.1071 14.5001C54.0782 15.1502 52.882 15.4428 51.6872 15.3367C50.4099 15.2503 49.1314 14.8373 47.8459 14.952C47.2642 14.9893 46.7099 15.2258 46.2669 15.6256C45.8276 16.0246 45.3039 15.2519 45.7397 14.8562Z" fill="#2F2E41"/>
<path d="M221.643 189H0.356885C0.262414 189 0.171907 188.96 0.105203 188.889C0.0384981 188.819 0.0010376 188.723 0.0010376 188.623C0.0010376 188.523 0.0384981 188.428 0.105203 188.357C0.171907 188.286 0.262414 188.247 0.356885 188.246H221.643C221.738 188.246 221.829 188.286 221.895 188.357C221.962 188.427 222 188.523 222 188.623C222 188.723 221.962 188.819 221.895 188.89C221.829 188.96 221.738 189 221.643 189Z" fill="#3F3D56"/>
</g>
<defs>
<clipPath id="clip0_61_148">
<rect width="222" height="189" fill="white"/>
</clipPath>
</defs>
</svg>
