<svg width="100%" height="192" viewBox="0 0 188 192" fill="none" xmlns="http://www.w3.org/2000/svg">
<g clip-path="url(#clip0_61_60)">
<path d="M58.1077 179.746L58.309 175.017C60.4074 173.845 62.7478 173.225 65.127 173.213C61.8525 176.011 62.2617 181.404 60.0416 185.166C59.3406 186.334 58.3971 187.322 57.2809 188.057C56.1648 188.792 54.9048 189.256 53.5941 189.412L50.8538 191.166C50.4778 188.975 50.5607 186.725 51.0968 184.572C51.6329 182.418 52.6095 180.411 53.9592 178.689C54.7256 177.731 55.6043 176.878 56.5747 176.15C57.231 177.958 58.1077 179.746 58.1077 179.746Z" fill="#F2F2F2"/>
<path d="M171.377 110.83C178.765 104.949 182.293 95.0673 180.084 85.6407C180.03 85.4064 179.972 85.1728 179.911 84.9396C178.446 79.344 174.823 74.0259 169.542 72.238C165.108 70.7368 160.268 71.8912 155.642 71.2942C146.561 70.1223 139.521 62.4439 134.568 54.4046C129.614 46.3653 125.807 37.3664 119.225 30.7247C108.375 19.7771 90.6763 17.42 77.2241 24.5461C63.7719 31.6723 55.203 47.4822 55.5684 63.2387C55.9339 78.9952 64.8846 94.0596 77.8833 102.052C82.6585 104.988 88.1815 107.068 93.678 106.341C98.4472 105.709 102.781 103.031 107.527 102.236C114.99 100.986 122.406 104.512 128.861 108.621C135.316 112.73 141.551 117.601 148.886 119.506C156.008 121.356 164.832 116.039 171.377 110.83Z" fill="#F2F2F2"/>
<path d="M112.92 40.4625H39.3195C37.7846 40.4644 36.313 41.1024 35.2276 42.2367C34.1422 43.371 33.5316 44.9089 33.5298 46.513V84.7941C33.5316 86.3983 34.1422 87.9361 35.2276 89.0704C36.313 90.2047 37.7846 90.8428 39.3195 90.8446H112.92C114.455 90.8433 115.927 90.2054 117.013 89.071C118.098 87.9366 118.709 86.3984 118.71 84.7941V46.513C118.709 44.9087 118.098 43.3706 117.013 42.2362C115.927 41.1018 114.455 40.4639 112.92 40.4625Z" fill="white"/>
<path d="M112.92 91.1428H39.3208C37.7103 91.1409 36.1663 90.4715 35.0276 89.2814C33.8888 88.0913 33.2482 86.4778 33.2464 84.7948V46.5125C33.2482 44.8295 33.8888 43.2159 35.0276 42.0258C36.1663 40.8358 37.7103 40.1663 39.3208 40.1644H112.92C114.531 40.1663 116.075 40.8358 117.214 42.0258C118.352 43.2159 118.993 44.8295 118.995 46.5125V84.7948C118.993 86.4778 118.352 88.0913 117.214 89.2814C116.075 90.4715 114.531 91.1409 112.92 91.1428ZM39.3208 40.7594C37.8613 40.7611 36.462 41.3678 35.43 42.4463C34.3979 43.5249 33.8174 44.9872 33.8157 46.5125V84.7948C33.8174 86.32 34.3979 87.7824 35.43 88.8609C36.462 89.9394 37.8613 90.5461 39.3208 90.5479H112.92C114.38 90.5461 115.779 89.9394 116.811 88.8609C117.843 87.7824 118.424 86.32 118.426 84.7948V46.5125C118.424 44.9872 117.843 43.5249 116.811 42.4463C115.779 41.3678 114.38 40.7611 112.92 40.7594H39.3208Z" fill="#CCCCCC"/>
<path d="M116.306 101.726H45.7742C45.1646 101.726 44.5799 101.473 44.1488 101.022C43.7177 100.572 43.4755 99.9606 43.4755 99.3235C43.4755 98.6864 43.7177 98.0754 44.1488 97.6249C44.5799 97.1744 45.1646 96.9213 45.7742 96.9213H116.306C116.916 96.9213 117.5 97.1744 117.931 97.6249C118.363 98.0754 118.605 98.6864 118.605 99.3235C118.605 99.9606 118.363 100.572 117.931 101.022C117.5 101.473 116.916 101.726 116.306 101.726Z" fill="#E6E6E6"/>
<path d="M68.3853 78.8184C67.9674 78.8172 67.5567 78.7054 67.1914 78.4935C66.8006 78.2732 66.4746 77.9458 66.2486 77.5464C66.0225 77.147 65.9049 76.6908 65.9083 76.2268V54.862C65.9083 54.3987 66.0274 53.944 66.2531 53.5452C66.4788 53.1465 66.8028 52.8185 67.1913 52.5954C67.5798 52.3723 68.0185 52.2624 68.4616 52.2771C68.9046 52.2918 69.3358 52.4306 69.7099 52.679L89.103 63.3614C89.4547 63.5949 89.7443 63.9174 89.9449 64.299C90.1456 64.6806 90.2508 65.109 90.2508 65.5444C90.2508 65.9798 90.1456 66.4082 89.9449 66.7898C89.7443 67.1714 89.4547 67.4939 89.103 67.7274L69.7099 78.4098C69.3147 78.6753 68.8551 78.817 68.3853 78.8184Z" fill="#F2F2F2"/>
<path d="M182.273 68.1666H151.516C150.875 68.1659 150.26 67.8993 149.806 67.4252C149.353 66.9512 149.098 66.3085 149.097 65.6382V49.6404C149.098 48.9701 149.353 48.3274 149.806 47.8533C150.26 47.3793 150.875 47.1127 151.516 47.1119H182.273C182.914 47.1127 183.529 47.3793 183.983 47.8533C184.436 48.3274 184.692 48.97 184.692 49.6404V65.6382C184.692 66.3085 184.436 66.9512 183.983 67.4252C183.529 67.8993 182.914 68.1659 182.273 68.1666Z" fill="white"/>
<path d="M182.273 68.4641H151.516C150.799 68.4632 150.112 68.1652 149.605 67.6355C149.098 67.1057 148.813 66.3874 148.812 65.6381V49.6404C148.813 48.8912 149.098 48.1729 149.605 47.6431C150.112 47.1133 150.799 46.8153 151.516 46.8145H182.273C182.99 46.8153 183.677 47.1133 184.184 47.6431C184.691 48.1729 184.976 48.8912 184.977 49.6404V65.6381C184.976 66.3874 184.691 67.1057 184.184 67.6355C183.677 68.1652 182.99 68.4632 182.273 68.4641ZM151.516 47.4094C150.95 47.41 150.408 47.6453 150.007 48.0635C149.607 48.4818 149.382 49.0489 149.382 49.6404V65.6381C149.382 66.2296 149.607 66.7967 150.007 67.215C150.408 67.6332 150.95 67.8685 151.516 67.8692H182.273C182.839 67.8685 183.382 67.6332 183.782 67.215C184.182 66.7967 184.407 66.2296 184.408 65.6381V49.6404C184.407 49.0489 184.182 48.4818 183.782 48.0635C183.382 47.6453 182.839 47.41 182.273 47.4094H151.516Z" fill="#CCCCCC"/>
<path d="M177.22 75.9948H156.501C155.892 75.9941 155.308 75.7407 154.877 75.2903C154.447 74.8398 154.205 74.2292 154.205 73.5926C154.205 72.9559 154.447 72.3453 154.877 71.8949C155.308 71.4444 155.892 71.191 156.501 71.1903H177.22C177.83 71.1903 178.414 71.4434 178.845 71.8939C179.277 72.3444 179.519 72.9554 179.519 73.5926C179.519 74.2297 179.277 74.8407 178.845 75.2912C178.414 75.7417 177.83 75.9948 177.22 75.9948Z" fill="#E6E6E6"/>
<path d="M163.587 63.3325C163.413 63.332 163.241 63.2852 163.088 63.1967C162.925 63.1046 162.789 62.9678 162.694 62.8009C162.6 62.634 162.551 62.4434 162.552 62.2495V53.3214C162.552 53.1278 162.602 52.9377 162.696 52.7711C162.791 52.6045 162.926 52.4674 163.088 52.3742C163.251 52.2809 163.434 52.235 163.619 52.2411C163.804 52.2473 163.985 52.3053 164.141 52.4091L172.245 56.8732C172.392 56.9707 172.513 57.1055 172.597 57.265C172.681 57.4245 172.725 57.6035 172.725 57.7854C172.725 57.9674 172.681 58.1464 172.597 58.3059C172.513 58.4653 172.392 58.6001 172.245 58.6977L164.141 63.1618C163.976 63.2727 163.784 63.3319 163.587 63.3325Z" fill="#80C4EF"/>
<path d="M162.632 136.988H131.876C131.234 136.987 130.619 136.72 130.166 136.246C129.712 135.772 129.457 135.129 129.456 134.459V118.461C129.457 117.791 129.712 117.148 130.166 116.674C130.619 116.2 131.234 115.934 131.876 115.933H162.632C163.274 115.934 163.889 116.2 164.342 116.674C164.796 117.148 165.051 117.791 165.052 118.461V134.459C165.051 135.129 164.796 135.772 164.342 136.246C163.889 136.72 163.274 136.987 162.632 136.988Z" fill="white"/>
<path d="M162.632 137.285H131.876C131.159 137.284 130.472 136.986 129.965 136.456C129.458 135.927 129.173 135.208 129.172 134.459V118.461C129.173 117.712 129.458 116.994 129.965 116.464C130.472 115.934 131.159 115.636 131.876 115.635H162.632C163.349 115.636 164.037 115.934 164.544 116.464C165.051 116.994 165.336 117.712 165.337 118.461V134.459C165.336 135.208 165.051 135.927 164.544 136.456C164.037 136.986 163.349 137.284 162.632 137.285ZM131.876 116.23C131.31 116.231 130.767 116.466 130.367 116.884C129.967 117.303 129.742 117.87 129.741 118.461V134.459C129.742 135.051 129.967 135.618 130.367 136.036C130.767 136.454 131.31 136.689 131.876 136.69H162.632C163.198 136.689 163.741 136.454 164.141 136.036C164.542 135.618 164.767 135.051 164.767 134.459V118.461C164.767 117.87 164.542 117.303 164.141 116.884C163.741 116.466 163.198 116.231 162.632 116.23H131.876Z" fill="#CCCCCC"/>
<path d="M157.58 144.859H136.861C136.251 144.858 135.667 144.604 135.237 144.154C134.806 143.704 134.564 143.093 134.564 142.456C134.564 141.82 134.806 141.209 135.237 140.759C135.667 140.308 136.251 140.055 136.861 140.054H157.58C158.189 140.054 158.774 140.307 159.205 140.758C159.636 141.208 159.878 141.819 159.878 142.456C159.878 143.093 159.636 143.704 159.205 144.155C158.774 144.605 158.189 144.859 157.58 144.859Z" fill="#E6E6E6"/>
<path d="M143.872 132.642C143.697 132.642 143.526 132.595 143.373 132.507C143.21 132.415 143.074 132.278 142.979 132.111C142.885 131.944 142.835 131.753 142.837 131.559V122.631C142.837 122.438 142.887 122.248 142.981 122.081C143.075 121.914 143.211 121.777 143.373 121.684C143.535 121.591 143.719 121.545 143.904 121.551C144.089 121.557 144.269 121.615 144.426 121.719L152.53 126.183C152.677 126.281 152.798 126.415 152.882 126.575C152.965 126.734 153.009 126.913 153.009 127.095C153.009 127.277 152.965 127.456 152.882 127.616C152.798 127.775 152.677 127.91 152.53 128.008L144.426 132.472C144.26 132.583 144.068 132.642 143.872 132.642Z" fill="#80C4EF"/>
<path d="M58.1931 81.6394L42.4511 81.7499C42.4511 81.7499 33.4856 78.7294 29.4196 79.3605L27.865 85.7427L39.0329 89.6096L58.4695 86.6625C58.9057 86.8927 59.3923 86.9988 59.8802 86.9701C60.3682 86.9414 60.8403 86.7788 61.249 86.4988C61.6577 86.2188 61.9887 85.8312 62.2085 85.3751C62.4283 84.9189 62.5293 84.4103 62.5012 83.9004C62.4732 83.3905 62.3171 82.8973 62.0487 82.4705C61.7803 82.0437 61.409 81.6983 60.9723 81.4691C60.5355 81.2399 60.0487 81.135 59.5608 81.1649C59.073 81.1948 58.6012 81.3584 58.1931 81.6394Z" fill="#A0616A"/>
<path d="M38.8997 90.2275L20.2231 84.6141L18.5227 77.9931C18.0798 77.1098 17.8821 76.1145 17.952 75.1199C18.0219 74.1253 18.3566 73.171 18.9182 72.3647C20.5126 70.108 21.759 72.3495 24.0217 73.8586C27.9885 74.1517 37.8895 77.6922 41.9087 81.7916L41.592 84.3115L38.8997 90.2275Z" fill="#3F3D56"/>
<path d="M55.1495 84.8232C54.7317 84.8219 54.3209 84.7101 53.9556 84.4982C53.5648 84.278 53.2388 83.9505 53.0128 83.5512C52.7867 83.1518 52.6691 82.6956 52.6726 82.2316V60.8667C52.6726 60.4035 52.7916 59.9487 53.0173 59.55C53.243 59.1513 53.567 58.8232 53.9555 58.6001C54.344 58.3771 54.7827 58.2671 55.2258 58.2818C55.6688 58.2965 56.1 58.4353 56.4742 58.6837L75.8673 69.3661C76.2189 69.5996 76.5085 69.9221 76.7092 70.3037C76.9098 70.6854 77.015 71.1137 77.015 71.5491C77.015 71.9846 76.9098 72.4129 76.7092 72.7946C76.5085 73.1762 76.2189 73.4987 75.8673 73.7322L56.4742 84.4146C56.0789 84.68 55.6193 84.8218 55.1495 84.8232Z" fill="#80C4EF"/>
<path d="M42.1212 187.729L46.0945 187.728L47.9846 171.713L42.1206 171.713L42.1212 187.729Z" fill="#A0616A"/>
<path d="M41.1077 186.373L42.2261 186.373L46.5923 184.517L48.9324 186.372H48.9327C50.2552 186.372 51.5235 186.922 52.4586 187.899C53.3938 188.876 53.9192 190.201 53.9193 191.583V191.753L41.108 191.753L41.1077 186.373Z" fill="#2F2E41"/>
<path d="M13.8275 183.82L17.591 185.151L24.2967 170.615L18.7424 168.65L13.8275 183.82Z" fill="#A0616A"/>
<path d="M13.2836 182.196L14.3429 182.57L19.0479 182.276L20.695 184.818L20.6953 184.818C21.9479 185.262 22.9806 186.207 23.5664 187.446C24.1522 188.685 24.2431 190.116 23.819 191.425L23.767 191.586L11.6324 187.292L13.2836 182.196Z" fill="#2F2E41"/>
<path d="M18.433 118.743C18.433 118.743 17.969 124.562 19.1289 130.137C20.2887 135.713 22.7848 154.222 22.7848 154.222C17.7291 162.906 14.799 171.451 14.2455 180.101L21.3616 180.696L31.5509 155.431L32.5833 130.137L40.0064 147.349L39.6247 148.679C39.5344 148.993 39.5454 149.33 39.6562 149.637C39.7669 149.945 39.9711 150.205 40.2374 150.38C40.2374 150.38 39.5424 155.107 40.0064 155.107C40.4703 155.107 41.6302 155.834 41.6302 155.834C38.7383 165.242 38.35 174.252 41.0021 182.778L47.2643 182.481L51.373 145.41L48.3574 125.289L48.1254 121.41L47.0815 121.455L46.55 119.834L45.5737 117.047L18.433 118.743Z" fill="#2F2E41"/>
<path d="M18.032 119.965L17.9907 119.905C15.7827 116.674 19.1036 108.911 19.6044 107.786L17.4948 107.071L15.6501 90.7574L14.301 85.1219C13.7927 82.9915 13.836 80.7581 14.4265 78.651C15.0171 76.5438 16.1335 74.6389 17.6613 73.1316L20.7798 70.0589L24.5697 64.1985H30.6814L32.777 68.3351C34.8087 68.8258 36.6112 70.0458 37.8707 71.7826C39.1301 73.5194 39.7667 75.6629 39.6693 77.8397L39.1944 88.6887L41.0537 102.197L41.0548 104.641L44.2827 110.172L44.9859 113.601C45.2769 114.002 47.1976 116.678 47.1976 117.41C47.1976 117.52 47.12 117.626 46.9535 117.744C45.6445 118.67 38.4099 120.559 35.208 119.22C31.7972 117.794 18.2391 119.932 18.1025 119.954L18.032 119.965Z" fill="#3F3D56"/>
<path d="M80.4606 191.646C80.4607 191.692 80.4521 191.738 80.4353 191.781C80.4184 191.824 80.3937 191.863 80.3624 191.896C80.3311 191.929 80.294 191.955 80.2531 191.973C80.2121 191.991 80.1682 192 80.1239 192H0.338728C0.248892 192 0.162734 191.963 0.0992105 191.896C0.0356868 191.83 0 191.74 0 191.646C0 191.552 0.0356868 191.462 0.0992105 191.396C0.162734 191.329 0.248892 191.292 0.338728 191.292H80.1219C80.2114 191.292 80.2974 191.329 80.361 191.395C80.4245 191.461 80.4603 191.55 80.4606 191.644V191.646Z" fill="#CCCCCC"/>
<path d="M28.4151 62.3066C32.8854 62.3066 36.5093 58.5195 36.5093 53.8478C36.5093 49.1762 32.8854 45.389 28.4151 45.389C23.9448 45.389 20.3209 49.1762 20.3209 53.8478C20.3209 58.5195 23.9448 62.3066 28.4151 62.3066Z" fill="#A0616A"/>
<path d="M58.4621 60.3421L45.974 70.3587C45.974 70.3587 37.081 73.6049 34.2034 76.6725L36.6495 82.7418L47.7874 78.7815L61.5833 64.1729C62.0641 64.0814 62.5133 63.8591 62.8858 63.5284C63.2583 63.1978 63.5408 62.7704 63.705 62.2894C63.8692 61.8083 63.9092 61.2905 63.8211 60.7882C63.733 60.2858 63.5197 59.8166 63.2029 59.4277C62.8861 59.0389 62.4768 58.7441 62.0163 58.573C61.5558 58.402 61.0603 58.3607 60.5797 58.4534C60.0991 58.5461 59.6503 58.7695 59.2786 59.101C58.9069 59.4326 58.6252 59.8606 58.4621 60.3421Z" fill="#A0616A"/>
<path d="M48.038 79.3582L30.6898 84.6669L24.7251 82.4549C23.8618 82.0299 23.1294 81.361 22.6107 80.5239C22.0921 79.6868 21.8078 78.7147 21.79 77.7176C21.7581 74.9126 24.0463 75.9139 26.7221 75.69C30.0542 73.4218 39.9934 70.0002 45.5655 70.734L46.7683 72.943L48.038 79.3582Z" fill="#3F3D56"/>
<path d="M33.9653 44.0816C33.3852 44.0636 33.5843 42.9209 33.117 42.5563C33.1147 42.5674 33.1123 42.5784 33.1099 42.5895C33.0486 42.8363 32.9131 43.0561 32.7234 43.2164C32.5336 43.3767 32.2996 43.4691 32.0558 43.4799C31.812 43.4908 31.5713 43.4196 31.3691 43.2767C31.167 43.1339 31.0141 42.927 30.9329 42.6865C30.8554 42.4083 30.7151 42.1537 30.5238 41.9439C30.3325 41.7342 30.0958 41.5755 29.8336 41.4813C29.8045 42.5405 29.0378 43.4597 28.1233 43.9172C27.2087 44.3747 26.1659 44.4508 25.1521 44.4665C24.1382 44.4821 23.1098 44.4467 22.1267 44.7059C21.1436 44.9652 20.1873 45.5748 19.7673 46.5392C19.3472 47.5036 19.6469 48.8314 20.5654 49.2802C19.8539 49.2842 19.2501 49.8978 19.0041 50.5955C18.8024 51.3112 18.7498 52.0637 18.8498 52.8024C19.0498 55.5377 19.5373 58.4825 21.4432 60.3689C22.8957 61.8065 24.9748 62.3857 26.9754 62.3773C28.976 62.3689 28.6242 62.1768 30.5586 61.6432C30.5586 61.6432 32.3976 56.1336 31.9345 55.5916C31.4714 55.0496 31.0868 54.3561 31.1706 53.6348C31.2544 52.9134 31.9962 52.2673 32.6399 52.5419C32.5317 52.2527 32.4501 52.1976 32.399 52.2123C32.4316 52.1301 32.4599 52.0462 32.4841 51.9609C32.6053 51.5263 32.8234 51.128 33.1206 50.7987C33.4178 50.4694 33.7855 50.2185 34.1935 50.0666C34.6057 49.9268 35.0489 49.9222 35.4636 50.0533C35.8784 50.1845 36.2448 50.4452 36.5136 50.8003C38.6317 48.7244 37.3176 44.1856 33.9653 44.0816Z" fill="#2F2E41"/>
<path d="M170.977 10.2579H41.6648C41.5303 10.2549 41.4023 10.197 41.3082 10.0965C41.2141 9.99607 41.1614 9.86109 41.1614 9.72051C41.1614 9.57993 41.2141 9.44495 41.3082 9.34449C41.4023 9.24403 41.5303 9.1861 41.6648 9.18311H170.977C171.111 9.1861 171.239 9.24403 171.334 9.34449C171.428 9.44495 171.48 9.57993 171.48 9.72051C171.48 9.86109 171.428 9.99607 171.334 10.0965C171.239 10.197 171.111 10.2549 170.977 10.2579Z" fill="#CACACA"/>
<path d="M50.4672 6.43925C52.1316 6.43925 53.4809 4.99778 53.4809 3.21963C53.4809 1.44148 52.1316 0 50.4672 0C48.8028 0 47.4536 1.44148 47.4536 3.21963C47.4536 4.99778 48.8028 6.43925 50.4672 6.43925Z" fill="#3F3D56"/>
<path d="M60.8781 6.43925C62.5425 6.43925 63.8918 4.99778 63.8918 3.21963C63.8918 1.44148 62.5425 0 60.8781 0C59.2137 0 57.8644 1.44148 57.8644 3.21963C57.8644 4.99778 59.2137 6.43925 60.8781 6.43925Z" fill="#3F3D56"/>
<path d="M71.289 6.43925C72.9534 6.43925 74.3027 4.99778 74.3027 3.21963C74.3027 1.44148 72.9534 0 71.289 0C69.6246 0 68.2753 1.44148 68.2753 3.21963C68.2753 4.99778 69.6246 6.43925 71.289 6.43925Z" fill="#3F3D56"/>
<path d="M164.709 0.797974H157.313C157.167 0.801005 157.027 0.863992 156.925 0.973406C156.822 1.08282 156.764 1.22993 156.764 1.38316C156.764 1.53639 156.822 1.6835 156.925 1.79292C157.027 1.90233 157.167 1.96531 157.313 1.96834H164.709C164.855 1.96531 164.995 1.90233 165.098 1.79292C165.2 1.6835 165.258 1.53639 165.258 1.38316C165.258 1.22993 165.2 1.08282 165.098 0.973406C164.995 0.863992 164.855 0.801005 164.709 0.797974Z" fill="#3F3D56"/>
<path d="M164.709 2.99463H157.313C157.167 2.99766 157.027 3.06064 156.925 3.17006C156.822 3.27947 156.764 3.42659 156.764 3.57981C156.764 3.73304 156.822 3.88015 156.925 3.98957C157.027 4.09898 157.167 4.16197 157.313 4.165H164.709C164.855 4.16197 164.995 4.09898 165.098 3.98957C165.2 3.88015 165.258 3.73304 165.258 3.57981C165.258 3.42659 165.2 3.27947 165.098 3.17006C164.995 3.06064 164.855 2.99766 164.709 2.99463Z" fill="#3F3D56"/>
<path d="M164.709 5.18835H157.313C157.167 5.19139 157.027 5.25437 156.925 5.36378C156.822 5.4732 156.764 5.62031 156.764 5.77354C156.764 5.92677 156.822 6.07388 156.925 6.18329C157.027 6.29271 157.167 6.35569 157.313 6.35873H164.709C164.855 6.35569 164.995 6.29271 165.098 6.18329C165.2 6.07388 165.258 5.92677 165.258 5.77354C165.258 5.62031 165.2 5.4732 165.098 5.36378C164.995 5.25437 164.855 5.19139 164.709 5.18835Z" fill="#3F3D56"/>
<path d="M102.209 40.4625V48.5417C102.209 48.9433 101.537 49.2795 100.632 49.3717C100.624 49.3712 100.617 49.3722 100.609 49.3747C100.458 49.3866 100.299 49.3955 100.137 49.3955C99.6377 49.4051 99.1411 49.3204 98.6708 49.1456C98.6281 49.1278 98.5854 49.1069 98.5427 49.0891C98.5029 49.0653 98.4602 49.0445 98.4203 49.0207C98.1955 48.8809 98.0645 48.7172 98.0645 48.5417V40.4625H102.209Z" fill="#CCCCCC"/>
<path d="M165.122 139.857C167.067 139.857 168.644 138.209 168.644 136.176C168.644 134.144 167.067 132.496 165.122 132.496C163.177 132.496 161.601 134.144 161.601 136.176C161.601 138.209 163.177 139.857 165.122 139.857Z" fill="#3F3D56"/>
<path d="M164.859 137.647C164.851 137.647 164.844 137.647 164.836 137.647C164.77 137.643 164.705 137.625 164.646 137.593C164.587 137.561 164.536 137.516 164.495 137.461L163.906 136.671C163.869 136.621 163.842 136.564 163.826 136.503C163.81 136.442 163.805 136.378 163.813 136.315C163.82 136.252 163.839 136.192 163.869 136.137C163.899 136.082 163.939 136.034 163.987 135.995L164.008 135.978C164.056 135.939 164.111 135.91 164.169 135.893C164.227 135.877 164.288 135.872 164.348 135.88C164.408 135.888 164.466 135.908 164.519 135.939C164.572 135.97 164.618 136.012 164.655 136.062C164.685 136.102 164.722 136.135 164.765 136.158C164.808 136.181 164.855 136.195 164.904 136.197C164.952 136.2 165 136.191 165.045 136.172C165.09 136.153 165.131 136.125 165.164 136.088L166.359 134.77C166.443 134.677 166.559 134.623 166.681 134.62C166.803 134.616 166.922 134.663 167.01 134.751L167.03 134.771C167.074 134.814 167.109 134.866 167.134 134.924C167.159 134.982 167.172 135.044 167.174 135.107C167.175 135.17 167.165 135.233 167.143 135.292C167.122 135.351 167.089 135.405 167.048 135.451L165.193 137.497C165.15 137.544 165.098 137.582 165.041 137.608C164.983 137.634 164.921 137.647 164.859 137.647Z" fill="white"/>
<path d="M184.478 71.4392C186.423 71.4392 188 69.7915 188 67.7589C188 65.7263 186.423 64.0785 184.478 64.0785C182.533 64.0785 180.957 65.7263 180.957 67.7589C180.957 69.7915 182.533 71.4392 184.478 71.4392Z" fill="#3F3D56"/>
<path d="M184.215 69.2297C184.207 69.2297 184.2 69.2295 184.192 69.2291C184.126 69.2258 184.061 69.2075 184.002 69.1755C183.943 69.1435 183.891 69.0985 183.851 69.0437L183.262 68.253C183.225 68.2031 183.198 68.146 183.182 68.085C183.165 68.0241 183.161 67.9604 183.169 67.8976C183.176 67.8349 183.195 67.7743 183.225 67.7193C183.255 67.6643 183.295 67.616 183.343 67.5772L183.364 67.56C183.412 67.5211 183.466 67.4925 183.525 67.4757C183.583 67.4589 183.644 67.4543 183.704 67.4621C183.764 67.47 183.822 67.4901 183.875 67.5214C183.928 67.5527 183.974 67.5945 184.011 67.6445C184.041 67.6843 184.078 67.717 184.121 67.7403C184.164 67.7636 184.211 67.777 184.26 67.7794C184.308 67.7819 184.356 67.7734 184.401 67.7546C184.446 67.7358 184.486 67.707 184.52 67.6704L185.715 66.352C185.799 66.2594 185.915 66.2054 186.037 66.202C186.159 66.1985 186.277 66.2458 186.366 66.3335L186.386 66.353C186.43 66.3965 186.465 66.4486 186.49 66.5063C186.514 66.5641 186.528 66.6263 186.53 66.6896C186.531 66.7528 186.521 66.8157 186.499 66.8748C186.478 66.9338 186.445 66.9878 186.403 67.0337L184.549 69.0793C184.506 69.1268 184.454 69.1647 184.397 69.1906C184.339 69.2164 184.277 69.2298 184.215 69.2297Z" fill="white"/>
</g>
<defs>
<clipPath id="clip0_61_60">
<rect width="188" height="192" fill="white"/>
</clipPath>
</defs>
</svg>
